<svg xmlns="http://www.w3.org/2000/svg" width="800" height="520" viewBox="0 0 800 520">
  <defs>
    <linearGradient id="gradOR" x1="0%" y1="0%" x2="100%" y2="100%">
      <stop offset="0%" stop-color="#051220"/>
      <stop offset="100%" stop-color="#2f82ff"/>
    </linearGradient>
    <radialGradient id="spotlight" cx="50%" cy="10%" r="70%">
      <stop offset="0%" stop-color="#ffffff" stop-opacity=".6"/>
      <stop offset="100%" stop-color="#ffffff" stop-opacity="0"/>
    </radialGradient>
  </defs>
  <rect width="800" height="520" rx="32" fill="url(#gradOR)"/>
  <path d="M0 120h800v260H0z" fill="url(#spotlight)" opacity=".4"/>
  <g transform="translate(110 150)">
    <rect x="0" y="40" width="220" height="140" rx="24" fill="#0b213e" opacity=".6"/>
    <rect x="28" y="60" width="164" height="96" rx="18" fill="#154680" opacity=".8"/>
    <rect x="70" y="-40" width="80" height="140" rx="32" fill="#0d62f7" opacity=".75"/>
    <rect x="80" y="-60" width="60" height="40" rx="16" fill="#c8e0ff" opacity=".85"/>
    <rect x="94" y="-84" width="32" height="32" rx="12" fill="#0d62f7" opacity=".85"/>
    <rect x="250" y="20" width="320" height="160" rx="28" fill="#0d223c" opacity=".6"/>
    <rect x="280" y="52" width="260" height="96" rx="22" fill="#132f54"/>
    <path d="M320 82h80v36h-80zm120 0h80v36h-80z" fill="#0d62f7" opacity=".8"/>
    <circle cx="280" cy="170" r="12" fill="#0d62f7"/>
    <circle cx="540" cy="170" r="12" fill="#0d62f7"/>
  </g>
  <text x="420" y="188" fill="#e6f1ff" font-family="'Inter', 'Segoe UI', sans-serif" font-weight="700" font-size="44">
    Operating Room Safety
  </text>
  <text x="420" y="232" fill="#c5ddff" font-family="'Inter', 'Segoe UI', sans-serif" font-size="18">
    Crisis resource management · Checklist mastery · Human factors
  </text>
  <text x="420" y="276" fill="#94bcf5" font-family="'Inter', 'Segoe UI', sans-serif" font-size="16">
    Mass General Surgical Safety Collaborative
  </text>
  <rect x="420" y="316" width="220" height="52" rx="26" fill="#0d62f7" opacity=".85"/>
  <text x="454" y="348" fill="#f2f7ff" font-family="'Inter', 'Segoe UI', sans-serif" font-weight="600" font-size="18">
    5-Hour Intermediate Series
  </text>
</svg>
