<svg xmlns="http://www.w3.org/2000/svg" width="800" height="520" viewBox="0 0 800 520">
  <defs>
    <linearGradient id="gradMRI" x1="0%" y1="0%" x2="100%" y2="100%">
      <stop offset="0%" stop-color="#0d1b3d"/>
      <stop offset="100%" stop-color="#8344ff"/>
    </linearGradient>
    <radialGradient id="scanGlow" cx="50%" cy="50%" r="70%">
      <stop offset="0%" stop-color="#ffffff" stop-opacity=".9"/>
      <stop offset="100%" stop-color="#d6c5ff" stop-opacity="0"/>
    </radialGradient>
  </defs>
  <rect width="800" height="520" rx="32" fill="url(#gradMRI)"/>
  <g transform="translate(90 90)">
    <circle cx="150" cy="170" r="150" fill="#190733" opacity=".6"/>
    <circle cx="150" cy="170" r="120" fill="#1f0c49"/>
    <circle cx="150" cy="170" r="100" fill="url(#scanGlow)"/>
    <path d="M80 170c0-39 31-70 70-70s70 31 70 70-31 70-70 70-70-31-70-70z" fill="#fff" opacity=".12"/>
    <rect x="260" y="50" width="280" height="220" rx="28" fill="#120629" opacity=".55"/>
    <rect x="280" y="80" width="240" height="160" rx="22" fill="#22114a"/>
    <rect x="310" y="110" width="180" height="100" rx="16" fill="#401aa6"/>
    <path d="M300 290h240v32H300z" fill="#130639"/>
    <circle cx="420" cy="242" r="14" fill="#b194ff"/>
  </g>
  <text x="420" y="190" fill="#ece6ff" font-family="'Inter', 'Segoe UI', sans-serif" font-weight="700" font-size="46">
    Advanced MRI Interpretation
  </text>
  <text x="420" y="238" fill="#d0c3ff" font-family="'Inter', 'Segoe UI', sans-serif" font-size="19">
    Neuro · Musculoskeletal · Cardiac pattern recognition
  </text>
  <text x="420" y="282" fill="#a99cf3" font-family="'Inter', 'Segoe UI', sans-serif" font-size="16">
    Mayo Clinic Imaging Sciences
  </text>
  <rect x="420" y="320" width="210" height="52" rx="26" fill="#401aa6" opacity=".85"/>
  <text x="460" y="352" fill="#ffffff" font-family="'Inter', 'Segoe UI', sans-serif" font-weight="600" font-size="18">
    6-Hour Advanced Track
  </text>
</svg>
